<svg width="32" height="32" viewBox="0 0 32 32" fill="none" xmlns="http://www.w3.org/2000/svg">
  <defs>
    <linearGradient id="shield-gradient" x1="0%" y1="0%" x2="100%" y2="100%">
      <stop offset="0%" style="stop-color:#667eea;stop-opacity:1" />
      <stop offset="100%" style="stop-color:#764ba2;stop-opacity:1" />
    </linearGradient>
    <linearGradient id="lock-gradient" x1="0%" y1="0%" x2="100%" y2="100%">
      <stop offset="0%" style="stop-color:#f093fb;stop-opacity:1" />
      <stop offset="100%" style="stop-color:#f5576c;stop-opacity:1" />
    </linearGradient>
  </defs>
  
  <!-- Shield Shape -->
  <path d="M16 2L6 6V16C6 22.6 10.4 28.8 16 30C21.6 28.8 26 22.6 26 16V6L16 2Z" 
        fill="url(#shield-gradient)" 
        stroke="#4c1d95" 
        stroke-width="1"/>
  
  <!-- Chat Bubble -->
  <ellipse cx="13" cy="13" rx="7" ry="5" fill="white" opacity="0.9"/>
  <path d="M13 18L15 20L13 18Z" fill="white" opacity="0.9"/>
  
  <!-- Lock Icon -->
  <rect x="14" y="16" width="6" height="6" rx="1" fill="url(#lock-gradient)"/>
  <path d="M15 16V14C15 12.9 15.9 12 17 12C18.1 12 19 12.9 19 14V16" 
        stroke="url(#lock-gradient)" 
        stroke-width="1.5" 
        fill="none"/>
  
  <!-- Security Dots -->
  <circle cx="9" cy="10" r="1" fill="#667eea" opacity="0.6"/>
  <circle cx="17" cy="10" r="1" fill="#667eea" opacity="0.6"/>
  <circle cx="13" cy="8" r="1" fill="#667eea" opacity="0.6"/>
  
  <!-- Highlight -->
  <path d="M16 2L8 5V8L16 5L24 8V5L16 2Z" fill="white" opacity="0.3"/>
</svg>